<svg xmlns="http://www.w3.org/2000/svg" viewBox="0 0 154.1 154.1">
<circle fill="#E6E6E6" cx="77.1" cy="77.1" r="77.1"/>
<path d="M67.4,131.3h20.8c0,0,21.2,-71.5,-13.3,-96.9c-24.9,29,-7.5,96.9,-7.5,96.9z"/>
<path d="M37.6,125.7c-22.6,-8.5,-42.3,-49.6,-14.2,-88.2c18.9,24.2,-11.1,19.4,14.2,88.2z"/>
<path d="M60.4,130.9c-18.5,9.7,-43.6,-59.3,-10.4,-103.6c23.8,27.5,-7.7,44.3,10.4,104.5"/>
<path d="M95,130.9c18.5,9.7,43.6,-59.3,10.4,-103.6c-23.8,27.4,7.7,44.2,-10.4,104.4"/>
<path d="M117.8,125.6c22.6,-8.5,42.3,-49.5,14.2,-88.1c-18.9,24.2,11.1,19.4,-14.2,88.1z"/>
</svg>